# xmcd
#
# Track frame offsets: 
#        150
#        20625
#        52667
#        70368
#        86664
#        105079
#        136009
#        156211
#        175976
#        192207
#        220225
#        238876
#        271776
#
# Disc length: 4086 seconds
#
# Revision: 4
# Processed by: cddbd v1.5.2PL0 Copyright (c) Steve Scherf et al.
# Submitted via: ExactAudioCopyFreeDBPlugin 1.0
#
DISCID=a90ff40d
DTITLE=Various Artist - Where Blues Meets Rock VII
DYEAR=2006
DGENRE=Bluesrock
TTITLE0=Leslie West - Blues Before Sunrise
TTITLE1=Joe Bonamassa - So Many Roads
TTITLE2=Eric Gales - Retribution
TTITLE3=Pat Travers - I'm Yours, She's Mine
TTITLE4=Rick Derringer - Still Alive And Well (live)
TTITLE5=Stoney Curtis Band - Crashin' Down Like Thunder
TTITLE6=Michael Katon - Back To Your Cages
TTITLE7=Dave Hole - Jenny Lee
TTITLE8=Greg Koch - Your Face
TTITLE9=Carl Verheyen - Georgia's Reel
TTITLE10=Scott Henderson - Well To The Bone (live)
TTITLE11=Michael Landau - Worried Life Blues
TTITLE12=Jing Chi - Blues Alley
EXTD=
EXTT0=
EXTT1=
EXTT2=
EXTT3=
EXTT4=
EXTT5=
EXTT6=
EXTT7=
EXTT8=
EXTT9=
EXTT10=
EXTT11=
EXTT12=
PLAYORDER=
